<svg version="1.1" id="Layer_1" xmlns="http://www.w3.org/2000/svg" xmlns:xlink="http://www.w3.org/1999/xlink" x="0px" y="0px"
	 width="100%" viewBox="0 0 269 308" enable-background="new 0 0 269 308" xml:space="preserve">
<path fill="#1F1F1F" opacity="1.000000" stroke="none" 
	d="
M266.168671,234.600250 
	C224.786407,258.462250 183.700241,282.021027 142.711594,305.748291 
	C137.994476,308.478912 134.069656,308.521454 129.335190,305.777252 
	C89.222214,282.526886 49.034317,259.405121 8.775088,236.408997 
	C5.709270,234.657791 4.755220,232.804871 4.762756,229.412216 
	C4.868233,181.930862 4.878630,134.449081 4.743104,86.967873 
	C4.733160,83.484207 5.909773,81.724899 8.816931,80.060257 
	C49.917122,56.526306 90.967476,32.905033 131.966949,9.196061 
	C134.878204,7.512564 137.058258,7.471759 139.995575,9.176681 
	C181.100937,33.035583 222.265549,56.792637 263.467163,80.485039 
	C266.020111,81.953087 267.255676,83.412994 267.247803,86.590485 
	C267.129272,134.404984 267.171539,182.219864 267.137482,230.034637 
	C267.136444,231.472275 266.717712,232.909607 266.168671,234.600250 
M58.265587,113.894463 
	C58.231880,142.666046 58.145847,171.437912 58.302361,200.208450 
	C58.311188,201.830765 59.941673,204.074707 61.446571,204.960983 
	C76.603668,213.887466 91.865219,222.638168 107.153824,231.339157 
	C116.752190,236.801758 126.446716,242.095383 136.009567,248.465820 
	C136.009567,264.186859 136.009567,279.907867 136.009567,295.989960 
	C136.992584,295.547333 137.435150,295.391968 137.834732,295.161926 
	C176.126312,273.115845 214.388382,251.018143 252.754608,229.102768 
	C255.721390,227.408096 255.866608,225.355820 255.863892,222.594955 
	C255.821625,179.614868 255.791504,136.634583 255.919815,93.654823 
	C255.929565,90.393463 254.962402,88.679428 252.147827,87.068520 
	C214.794769,65.689674 177.491486,44.223244 140.265121,22.624680 
	C137.121674,20.800858 134.914474,20.775476 131.758240,22.607704 
	C94.817123,44.052425 57.778011,65.328339 20.769203,86.656509 
	C19.400335,87.445389 18.076635,88.312637 16.312067,89.402702 
	C30.647921,97.473892 44.398426,105.215515 58.265587,113.894463 
z"/>
<path fill="#FEFEFE" opacity="1.000000" stroke="none" 
	d="
M58.148933,112.957146 
	C44.398426,105.215515 30.647921,97.473892 16.312067,89.402702 
	C18.076635,88.312637 19.400335,87.445389 20.769203,86.656509 
	C57.778011,65.328339 94.817123,44.052425 131.758240,22.607704 
	C134.914474,20.775476 137.121674,20.800858 140.265121,22.624680 
	C177.491486,44.223244 214.794769,65.689674 252.147827,87.068520 
	C254.962402,88.679428 255.929565,90.393463 255.919815,93.654823 
	C255.791504,136.634583 255.821625,179.614868 255.863892,222.594955 
	C255.866608,225.355820 255.721390,227.408096 252.754608,229.102768 
	C214.388382,251.018143 176.126312,273.115845 137.834732,295.161926 
	C137.435150,295.391968 136.992584,295.547333 136.009567,295.989960 
	C136.009567,279.907867 136.009567,264.186859 136.022675,248.002350 
	C136.035767,247.538879 135.941589,247.555023 136.329636,247.562317 
	C161.335464,233.406799 185.925171,219.194641 210.612595,205.154266 
	C213.205078,203.679855 213.898422,202.031021 213.889267,199.244888 
	C213.799438,171.927460 213.770493,144.609238 213.923294,117.292366 
	C213.940857,114.153397 212.849991,112.616135 210.264740,111.143456 
	C186.731796,97.738091 163.238190,84.262436 139.832199,70.637054 
	C137.006378,68.992050 135.044373,68.960945 132.199142,70.618027 
	C107.786682,84.835907 83.264694,98.865723 58.618835,112.956673 
	C58.462242,112.961624 58.148933,112.957146 58.148933,112.957146 
z"/>
<path fill="#FDFDFD" opacity="1.000000" stroke="none" 
	d="
M58.207260,113.425804 
	C58.148933,112.957146 58.462242,112.961624 58.688126,113.314537 
	C71.697266,121.109612 84.480522,128.551788 97.292908,136.462250 
	C97.324791,150.201462 97.425095,163.473602 97.253395,176.742233 
	C97.216110,179.623611 98.192444,181.094971 100.634575,182.461243 
	C110.749374,188.120117 120.722778,194.031128 130.795929,199.765564 
	C132.419586,200.689865 134.285873,201.187973 136.019135,202.358673 
	C135.979370,217.741180 135.960480,232.648102 135.941589,247.555023 
	C135.941589,247.555023 136.035767,247.538879 136.066925,247.501862 
	C126.446716,242.095383 116.752190,236.801758 107.153824,231.339157 
	C91.865219,222.638168 76.603668,213.887466 61.446571,204.960983 
	C59.941673,204.074707 58.311188,201.830765 58.302361,200.208450 
	C58.145847,171.437912 58.231880,142.666046 58.207260,113.425804 
z"/>
<path fill="#202020" opacity="1.000000" stroke="none" 
	d="
M136.329636,247.562317 
	C135.960480,232.648102 135.979370,217.741180 135.992767,202.397629 
	C135.987274,201.960999 135.942871,202.044189 136.305588,202.133606 
	C148.467239,195.456284 160.302216,188.750549 172.011322,181.831802 
	C173.229279,181.112122 174.390320,179.138565 174.410538,177.730042 
	C174.594162,164.930481 174.606857,152.125809 174.406204,139.326767 
	C174.381104,137.725754 173.239319,135.464844 171.917007,134.668198 
	C160.837692,127.993347 149.633408,121.521141 138.347504,115.200867 
	C137.108917,114.507248 134.783264,114.561653 133.530441,115.272003 
	C121.564606,122.056740 109.721397,129.057709 97.698212,135.992676 
	C97.553421,135.988739 97.263779,135.993942 97.263779,135.993942 
	C84.480522,128.551788 71.697266,121.109612 58.844719,113.309586 
	C83.264694,98.865723 107.786682,84.835907 132.199142,70.618027 
	C135.044373,68.960945 137.006378,68.992050 139.832199,70.637054 
	C163.238190,84.262436 186.731796,97.738091 210.264740,111.143456 
	C212.849991,112.616135 213.940857,114.153397 213.923294,117.292366 
	C213.770493,144.609238 213.799438,171.927460 213.889267,199.244888 
	C213.898422,202.031021 213.205078,203.679855 210.612595,205.154266 
	C185.925171,219.194641 161.335464,233.406799 136.329636,247.562317 
z"/>
<path fill="#222222" opacity="1.000000" stroke="none" 
	d="
M97.292908,136.462250 
	C97.263779,135.993942 97.553421,135.988739 97.903542,136.276047 
	C109.898155,143.260986 121.594994,149.871140 133.120346,156.767868 
	C134.548203,157.622253 135.852325,159.988708 135.877838,161.674744 
	C136.081451,175.128464 135.962769,188.587082 135.942871,202.044189 
	C135.942871,202.044189 135.987274,201.960999 136.013641,201.922058 
	C134.285873,201.187973 132.419586,200.689865 130.795929,199.765564 
	C120.722778,194.031128 110.749374,188.120117 100.634575,182.461243 
	C98.192444,181.094971 97.216110,179.623611 97.253395,176.742233 
	C97.425095,163.473602 97.324791,150.201462 97.292908,136.462250 
z"/>
<path fill="#FCFCFC" opacity="1.000000" stroke="none" 
	d="
M136.305588,202.133606 
	C135.962769,188.587082 136.081451,175.128464 135.877838,161.674744 
	C135.852325,159.988708 134.548203,157.622253 133.120346,156.767868 
	C121.594994,149.871140 109.898155,143.260986 98.048325,136.279999 
	C109.721397,129.057709 121.564606,122.056740 133.530441,115.272003 
	C134.783264,114.561653 137.108917,114.507248 138.347504,115.200867 
	C149.633408,121.521141 160.837692,127.993347 171.917007,134.668198 
	C173.239319,135.464844 174.381104,137.725754 174.406204,139.326767 
	C174.606857,152.125809 174.594162,164.930481 174.410538,177.730042 
	C174.390320,179.138565 173.229279,181.112122 172.011322,181.831802 
	C160.302216,188.750549 148.467239,195.456284 136.305588,202.133606 
z"/>
</svg>