<svg version="1.1" id="Layer_1" xmlns="http://www.w3.org/2000/svg" xmlns:xlink="http://www.w3.org/1999/xlink" x="0px" y="0px"
	 width="100%" viewBox="0 0 269 308" enable-background="new 0 0 269 308" xml:space="preserve">
<path fill="#1E1E1E" opacity="1.000000" stroke="none" 
	d="
M133.000000,309.000000 
	C89.016754,309.000000 45.033501,309.000000 1.025126,309.000000 
	C1.025126,206.389175 1.025126,103.778343 1.025126,1.083753 
	C90.576622,1.083753 180.153351,1.083753 269.865051,1.083753 
	C269.865051,103.666557 269.865051,206.333252 269.865051,309.000000 
	C226.237350,309.000000 182.587326,309.000000 138.156738,308.715668 
	C137.681137,308.036255 137.902908,307.495178 138.303085,307.267120 
	C156.639984,296.816345 175.010345,286.424194 193.338669,275.958405 
	C216.620560,262.663971 239.859863,249.294998 263.146454,236.008850 
	C265.893982,234.441254 267.142639,232.631516 267.112457,229.152756 
	C266.904510,205.166962 267.003082,181.178513 267.003082,157.190918 
	C267.003082,133.869659 267.040161,110.548203 266.927277,87.227486 
	C266.918915,85.502808 266.354828,82.915840 265.163574,82.196785 
	C254.261475,75.616226 243.175644,69.338875 232.119171,63.015472 
	C217.710236,54.774723 203.254807,46.615036 188.864059,38.342754 
	C172.237244,28.785109 155.697784,19.074186 138.995163,9.651838 
	C137.453613,8.782223 134.594330,8.767879 133.045181,9.622340 
	C118.226730,17.795813 103.551369,26.229151 88.849731,34.613842 
	C74.851212,42.597534 60.850712,50.578098 46.887238,58.622795 
	C33.048367,66.595703 19.254627,74.646942 4.996885,82.921623 
	C4.996885,84.122635 4.996886,85.945312 4.996886,87.767990 
	C4.996888,134.077362 5.103070,180.387344 4.846429,226.695282 
	C4.818151,231.797684 6.705555,234.155731 10.797921,236.470535 
	C29.875134,247.261322 48.801136,258.320160 67.752525,269.332489 
	C88.692459,281.500336 109.611656,293.704102 130.493027,305.971924 
	C131.555099,306.595917 132.174500,307.973358 133.000000,309.000000 
z"/>
<path fill="#FEFEFE" opacity="1.000000" stroke="none" 
	d="
M133.416656,309.000000 
	C132.174500,307.973358 131.555099,306.595917 130.493027,305.971924 
	C109.611656,293.704102 88.692459,281.500336 67.752525,269.332489 
	C48.801136,258.320160 29.875134,247.261322 10.797921,236.470535 
	C6.705555,234.155731 4.818151,231.797684 4.846429,226.695282 
	C5.103070,180.387344 4.996888,134.077362 4.996886,87.767990 
	C4.996886,85.945312 4.996885,84.122635 4.996885,82.921623 
	C19.254627,74.646942 33.048367,66.595703 46.887238,58.622795 
	C60.850712,50.578098 74.851212,42.597534 88.849731,34.613842 
	C103.551369,26.229151 118.226730,17.795813 133.045181,9.622340 
	C134.594330,8.767879 137.453613,8.782223 138.995163,9.651838 
	C155.697784,19.074186 172.237244,28.785109 188.864059,38.342754 
	C203.254807,46.615036 217.710236,54.774723 232.119171,63.015472 
	C243.175644,69.338875 254.261475,75.616226 265.163574,82.196785 
	C266.354828,82.915840 266.918915,85.502808 266.927277,87.227486 
	C267.040161,110.548203 267.003082,133.869659 267.003082,157.190918 
	C267.003082,181.178513 266.904510,205.166962 267.112457,229.152756 
	C267.142639,232.631516 265.893982,234.441254 263.146454,236.008850 
	C239.859863,249.294998 216.620560,262.663971 193.338669,275.958405 
	C175.010345,286.424194 156.639984,296.816345 138.303085,307.267120 
	C137.902908,307.495178 137.681137,308.036255 137.688080,308.715668 
	C136.611115,309.000000 135.222214,309.000000 133.416656,309.000000 
M59.546036,114.954201 
	C59.310703,115.524422 58.870197,116.094383 58.869480,116.664902 
	C58.834221,144.770386 58.800056,172.876099 58.937878,200.980942 
	C58.945160,202.465881 60.062840,204.591171 61.307655,205.323349 
	C72.505814,211.909943 83.881905,218.192886 95.138596,224.681473 
	C105.960396,230.919403 116.673203,237.346527 127.500015,243.575607 
	C130.225677,245.143799 133.204208,246.272446 135.985794,247.590103 
	C135.985794,247.590103 135.917679,247.544830 135.992966,248.536697 
	C135.992966,264.273529 135.992966,280.010376 135.992966,295.867828 
	C138.140762,295.042297 139.884857,294.650879 141.331558,293.770691 
	C150.858154,287.974640 160.264236,281.979401 169.820923,276.234253 
	C178.383942,271.086487 187.083710,266.165802 195.734329,261.164246 
	C204.328903,256.195099 212.881668,251.149948 221.554382,246.320602 
	C231.732864,240.652756 242.068405,235.265518 252.205505,229.526398 
	C253.579498,228.748505 255.037369,226.637100 255.042450,225.138351 
	C255.192932,180.662262 255.180267,136.185547 255.096222,91.709114 
	C255.093430,90.234985 254.514282,88.052086 253.463882,87.409981 
	C248.313568,84.261559 242.921158,81.507233 237.597565,78.644775 
	C232.428604,75.865456 227.157486,73.265366 222.080460,70.328590 
	C216.244263,66.952675 210.657532,63.143990 204.807083,59.794659 
	C197.271332,55.480515 189.545883,51.499123 181.969482,47.254166 
	C176.349075,44.105122 170.839600,40.758316 165.273666,37.511684 
	C162.140961,35.684353 158.960068,33.937286 155.861115,32.054905 
	C150.901672,29.042408 145.972763,25.978428 141.067230,22.878748 
	C136.101654,19.741125 132.141190,21.618004 128.055344,24.900467 
	C125.616051,26.860144 122.529053,28.012108 119.737671,29.535332 
	C114.148872,32.585072 108.477005,35.494278 102.995056,38.725525 
	C93.208786,44.493885 83.590538,50.547558 73.797340,56.303814 
	C68.644920,59.332317 63.207428,61.872379 58.011902,64.831810 
	C50.054409,69.364494 42.182415,74.048058 34.297623,78.707344 
	C28.519583,82.121719 22.779242,85.599892 16.864162,89.144264 
	C17.846460,90.072899 18.332609,90.740875 18.986374,91.119232 
	C28.525227,96.639801 38.016392,102.249390 47.676662,107.550301 
	C51.575699,109.689827 55.856304,111.133972 60.040714,113.623154 
	C60.068520,113.865791 60.096329,114.108437 59.546036,114.954201 
z"/>
<path fill="#1F1F1F" opacity="1.000000" stroke="none" 
	d="
M59.963261,112.894577 
	C55.856304,111.133972 51.575699,109.689827 47.676662,107.550301 
	C38.016392,102.249390 28.525227,96.639801 18.986374,91.119232 
	C18.332609,90.740875 17.846460,90.072899 16.864162,89.144264 
	C22.779242,85.599892 28.519583,82.121719 34.297623,78.707344 
	C42.182415,74.048058 50.054409,69.364494 58.011902,64.831810 
	C63.207428,61.872379 68.644920,59.332317 73.797340,56.303814 
	C83.590538,50.547558 93.208786,44.493885 102.995056,38.725525 
	C108.477005,35.494278 114.148872,32.585072 119.737671,29.535332 
	C122.529053,28.012108 125.616051,26.860144 128.055344,24.900467 
	C132.141190,21.618004 136.101654,19.741125 141.067230,22.878748 
	C145.972763,25.978428 150.901672,29.042408 155.861115,32.054905 
	C158.960068,33.937286 162.140961,35.684353 165.273666,37.511684 
	C170.839600,40.758316 176.349075,44.105122 181.969482,47.254166 
	C189.545883,51.499123 197.271332,55.480515 204.807083,59.794659 
	C210.657532,63.143990 216.244263,66.952675 222.080460,70.328590 
	C227.157486,73.265366 232.428604,75.865456 237.597565,78.644775 
	C242.921158,81.507233 248.313568,84.261559 253.463882,87.409981 
	C254.514282,88.052086 255.093430,90.234985 255.096222,91.709114 
	C255.180267,136.185547 255.192932,180.662262 255.042450,225.138351 
	C255.037369,226.637100 253.579498,228.748505 252.205505,229.526398 
	C242.068405,235.265518 231.732864,240.652756 221.554382,246.320602 
	C212.881668,251.149948 204.328903,256.195099 195.734329,261.164246 
	C187.083710,266.165802 178.383942,271.086487 169.820923,276.234253 
	C160.264236,281.979401 150.858154,287.974640 141.331558,293.770691 
	C139.884857,294.650879 138.140762,295.042297 135.992966,295.867828 
	C135.992966,280.010376 135.992966,264.273529 136.302368,247.945099 
	C143.987244,243.432541 151.485748,239.723419 158.703568,235.531021 
	C165.910477,231.344955 172.694458,226.428101 179.919525,222.276566 
	C190.095764,216.429337 200.551895,211.070175 210.759979,205.276108 
	C211.973648,204.587234 213.058243,202.484222 213.065094,201.031326 
	C213.199280,172.549362 213.197433,144.066422 213.068985,115.584396 
	C213.062500,114.147530 212.031128,112.157341 210.849213,111.383186 
	C206.433029,108.490616 201.787750,105.939140 197.169052,103.366234 
	C187.137360,97.777977 177.062378,92.267471 167.020248,86.697868 
	C164.222687,85.146271 161.461700,83.526672 158.712372,81.890495 
	C151.487869,77.591034 144.323654,73.186310 137.007523,69.049751 
	C136.091003,68.531555 134.198608,69.018997 133.113586,69.650650 
	C129.469086,71.772331 126.087631,74.351250 122.418472,76.424110 
	C115.047401,80.588310 107.472237,84.393517 100.130882,88.607460 
	C91.963600,93.295525 83.952278,98.256256 75.893341,103.131805 
	C70.564819,106.355499 65.272041,109.638260 59.963261,112.894577 
z"/>
<path fill="#FEFEFE" opacity="1.000000" stroke="none" 
	d="
M60.001987,113.258865 
	C65.272041,109.638260 70.564819,106.355499 75.893341,103.131805 
	C83.952278,98.256256 91.963600,93.295525 100.130882,88.607460 
	C107.472237,84.393517 115.047401,80.588310 122.418472,76.424110 
	C126.087631,74.351250 129.469086,71.772331 133.113586,69.650650 
	C134.198608,69.018997 136.091003,68.531555 137.007523,69.049751 
	C144.323654,73.186310 151.487869,77.591034 158.712372,81.890495 
	C161.461700,83.526672 164.222687,85.146271 167.020248,86.697868 
	C177.062378,92.267471 187.137360,97.777977 197.169052,103.366234 
	C201.787750,105.939140 206.433029,108.490616 210.849213,111.383186 
	C212.031128,112.157341 213.062500,114.147530 213.068985,115.584396 
	C213.197433,144.066422 213.199280,172.549362 213.065094,201.031326 
	C213.058243,202.484222 211.973648,204.587234 210.759979,205.276108 
	C200.551895,211.070175 190.095764,216.429337 179.919525,222.276566 
	C172.694458,226.428101 165.910477,231.344955 158.703568,235.531021 
	C151.485748,239.723419 143.987244,243.432541 136.264725,247.449158 
	C135.917679,247.544830 135.985794,247.590103 135.997040,247.089813 
	C136.005844,233.276306 136.068130,219.962402 135.924011,206.650726 
	C135.904709,204.867203 135.384369,202.173035 134.177429,201.463776 
	C124.741776,195.918945 115.116310,190.691833 105.479790,185.495804 
	C97.705765,181.304047 97.662735,181.383835 97.662750,171.898590 
	C97.662766,161.081604 97.735588,150.263611 97.583900,139.448761 
	C97.561295,137.837326 96.955635,135.511597 95.808319,134.767609 
	C91.587059,132.030273 86.981422,129.894669 82.599442,127.394180 
	C75.076385,123.101295 67.612724,118.704346 60.124134,114.351074 
	C60.096329,114.108437 60.068520,113.865791 60.001987,113.258865 
M174.982208,135.221039 
	C174.340439,135.127411 173.698685,135.033798 172.611633,134.313339 
	C169.441437,132.762451 166.204803,131.331802 163.119812,129.626755 
	C160.053833,127.932205 157.164597,125.921219 154.154480,124.121536 
	C149.263367,121.197250 144.514557,117.955162 139.381058,115.536049 
	C132.747726,112.410156 128.270096,118.474472 123.232201,120.779190 
	C115.324867,124.396606 108.216660,129.760773 100.769661,134.384644 
	C100.079155,134.813370 99.386002,135.237823 98.694084,135.664261 
	C99.368713,136.281387 99.958946,137.042953 100.730667,137.493927 
	C111.687851,143.897064 122.664207,150.267471 133.649857,156.621704 
	C135.970001,157.963699 137.226852,159.417648 137.128098,162.585999 
	C136.791077,173.399368 136.999054,184.229721 136.999054,195.053604 
	C136.999054,197.107391 136.999054,199.161179 136.999054,201.831360 
	C139.030228,200.922180 140.155075,200.524826 141.176208,199.944885 
	C149.794998,195.050110 158.270432,189.884384 167.045395,185.289871 
	C172.616776,182.372742 175.070038,178.878494 174.713120,172.121033 
	C174.074417,160.028732 174.773453,147.865768 174.982208,135.221039 
z"/>
<path fill="#202020" opacity="1.000000" stroke="none" 
	d="
M59.835083,114.652634 
	C67.612724,118.704346 75.076385,123.101295 82.599442,127.394180 
	C86.981422,129.894669 91.587059,132.030273 95.808319,134.767609 
	C96.955635,135.511597 97.561295,137.837326 97.583900,139.448761 
	C97.735588,150.263611 97.662766,161.081604 97.662750,171.898590 
	C97.662735,181.383835 97.705765,181.304047 105.479790,185.495804 
	C115.116310,190.691833 124.741776,195.918945 134.177429,201.463776 
	C135.384369,202.173035 135.904709,204.867203 135.924011,206.650726 
	C136.068130,219.962402 136.005844,233.276306 136.037415,247.096298 
	C133.204208,246.272446 130.225677,245.143799 127.500015,243.575607 
	C116.673203,237.346527 105.960396,230.919403 95.138596,224.681473 
	C83.881905,218.192886 72.505814,211.909943 61.307655,205.323349 
	C60.062840,204.591171 58.945160,202.465881 58.937878,200.980942 
	C58.800056,172.876099 58.834221,144.770386 58.869480,116.664902 
	C58.870197,116.094383 59.310703,115.524422 59.835083,114.652634 
z"/>
<path fill="#1F1F1F" opacity="1.000000" stroke="none" 
	d="
M174.913284,135.732361 
	C174.773453,147.865768 174.074417,160.028732 174.713120,172.121033 
	C175.070038,178.878494 172.616776,182.372742 167.045395,185.289871 
	C158.270432,189.884384 149.794998,195.050110 141.176208,199.944885 
	C140.155075,200.524826 139.030228,200.922180 136.999054,201.831360 
	C136.999054,199.161179 136.999054,197.107391 136.999054,195.053604 
	C136.999054,184.229721 136.791077,173.399368 137.128098,162.585999 
	C137.226852,159.417648 135.970001,157.963699 133.649857,156.621704 
	C122.664207,150.267471 111.687851,143.897064 100.730667,137.493927 
	C99.958946,137.042953 99.368713,136.281387 98.694077,135.664261 
	C99.386002,135.237823 100.079155,134.813370 100.769661,134.384644 
	C108.216660,129.760773 115.324867,124.396606 123.232201,120.779190 
	C128.270096,118.474472 132.747726,112.410156 139.381058,115.536049 
	C144.514557,117.955162 149.263367,121.197250 154.154480,124.121536 
	C157.164597,125.921219 160.053833,127.932205 163.119812,129.626755 
	C166.204803,131.331802 169.441437,132.762451 172.983795,134.989746 
	C173.875076,135.688232 174.394180,135.710297 174.913284,135.732361 
z"/>
<path fill="#8D8D8D" opacity="1.000000" stroke="none" 
	d="
M174.947754,135.476700 
	C174.394180,135.710297 173.875076,135.688232 173.206451,135.303162 
	C173.698685,135.033798 174.340439,135.127411 174.947754,135.476700 
z"/>
</svg>